<svg xmlns="http://www.w3.org/2000/svg" xmlns:xlink="http://www.w3.org/1999/xlink" width="1080" zoomAndPan="magnify" viewBox="0 0 810 809.999993" height="1080" preserveAspectRatio="xMidYMid meet" version="1.0"><path fill="#ffffff" d="M 430.847656 471.441406 C 430.847656 471.441406 422.59375 494.257812 380.332031 500.539062 C 380.332031 500.539062 367.453125 502.855469 345.992188 516.410156 C 306.871094 550.863281 273.183594 564.316406 285.242188 581.214844 C 285.242188 581.214844 299.769531 607.335938 294.488281 643.046875 C 294.488281 643.046875 294.679688 692.78125 296.507812 695.300781 C 296.507812 695.300781 302.453125 711.328125 306.339844 714.535156 C 306.339844 714.535156 313.886719 723.238281 309.773438 731.023438 C 309.773438 731.023438 302.453125 743.386719 289.648438 748.65625 C 289.648438 748.65625 281.417969 755.984375 279.132812 765.601562 C 279.132812 765.601562 271.585938 782.773438 262.4375 781.171875 C 262.4375 781.171875 257.40625 785.066406 253.519531 781.859375 C 253.519531 781.859375 250.546875 783.460938 247.34375 782.773438 C 247.34375 782.773438 243.917969 783.917969 245.289062 780.027344 C 245.289062 780.027344 239.34375 784.148438 241.628906 778.425781 C 241.628906 778.425781 239.34375 781.859375 235 779.339844 C 235 779.339844 231.570312 774.074219 231.339844 772.699219 C 231.339844 772.699219 231.796875 768.347656 237.285156 769.953125 C 237.285156 769.953125 252.835938 765.371094 255.121094 763.082031 C 255.121094 763.082031 259.238281 750.945312 258.550781 748.425781 C 258.550781 748.425781 258.777344 735.601562 261.753906 731.023438 C 261.753906 731.023438 263.808594 703.546875 263.351562 701.941406 L 261.753906 700.339844 L 259.695312 673.777344 C 259.695312 673.777344 247.578125 625.917969 247.578125 617.902344 C 247.578125 617.902344 232.484375 573.707031 232.484375 566.839844 C 232.484375 566.839844 226.308594 551.269531 243.003906 536.382812 C 243.003906 536.382812 294.90625 470.664062 320.0625 455.320312 C 320.0625 455.320312 330.808594 441.125 336.980469 438.835938 C 336.980469 438.835938 330.351562 412.960938 334.925781 387.769531 C 334.925781 387.769531 332.179688 308.769531 334.464844 298.464844 C 334.464844 298.464844 326.921875 276.023438 326.003906 273.734375 C 326.003906 273.734375 295.820312 223.816406 297.195312 195.421875 C 297.195312 195.421875 290.335938 132.21875 288.964844 129.929688 C 288.964844 129.929688 280.730469 129.929688 272.5 116.878906 C 272.5 116.878906 269.070312 107.03125 284.390625 91.460938 C 284.390625 91.460938 289.878906 73.828125 288.503906 68.5625 C 288.503906 68.5625 286.675781 57.570312 286.90625 54.824219 C 286.90625 54.824219 283.019531 55.964844 282.332031 52.992188 C 282.332031 52.992188 282.789062 49.324219 283.933594 49.324219 C 283.933594 49.324219 280.730469 49.324219 279.585938 47.035156 C 279.585938 47.035156 278.445312 43.144531 281.191406 44.289062 C 281.191406 44.289062 275.472656 29.175781 283.707031 33.066406 C 283.707031 33.066406 288.277344 38.105469 290.105469 38.792969 C 290.105469 38.792969 294.449219 37.191406 296.738281 44.515625 C 296.738281 44.515625 303.824219 53.90625 305.425781 54.59375 C 305.425781 54.59375 313.886719 77.949219 315.257812 79.09375 C 315.257812 79.09375 322.117188 123.0625 321.890625 124.890625 L 323.261719 125.578125 C 323.261719 125.578125 324.863281 148.9375 328.0625 157.636719 C 328.0625 157.636719 351.160156 235.492188 359.390625 245.339844 C 359.390625 245.339844 378.199219 267.117188 379.296875 286.101562 C 379.296875 286.101562 409.390625 378.078125 407.636719 391.753906 C 407.636719 391.753906 431.804688 399.46875 446.511719 401.226562 C 446.511719 401.226562 483.855469 413.304688 488.148438 418.078125 C 488.148438 418.078125 522.472656 432.164062 534.867188 449.113281 C 535.292969 450.835938 592.273438 482.929688 550.839844 550.566406 C 550.839844 550.566406 548.933594 570.855469 547.738281 580.164062 C 547.738281 580.164062 567.285156 635.785156 567.285156 647.960938 C 567.285156 647.960938 567.285156 696.417969 557.511719 726.972656 C 557.117188 728.875 549.070312 794.449219 537.96875 802.644531 C 537.96875 802.644531 502.210938 803.597656 497.203125 802.882812 C 497.203125 802.882812 484.09375 807.179688 477.894531 804.792969 C 477.894531 804.792969 475.75 803.839844 477.894531 802.644531 L 483.855469 800.496094 C 481.996094 800.339844 457.789062 802.011719 463.832031 795.960938 L 460.734375 795.960938 C 460.734375 795.960938 455.964844 793.097656 461.6875 791.902344 C 461.6875 791.902344 476.226562 786.414062 493.390625 788.324219 C 493.390625 788.324219 493.390625 785.457031 498.160156 786.414062 C 498.160156 786.414062 509.601562 780.445312 520.328125 784.023438 L 524.617188 784.265625 C 524.617188 784.265625 530.816406 778.535156 529.382812 774.238281 L 531.054688 755.617188 L 523.664062 755.140625 C 523.664062 755.140625 514.605469 758.246094 510.316406 756.8125 C 510.316406 756.8125 506.261719 754.664062 509.359375 752.277344 C 483.453125 753.386719 480.703125 754.757812 482.90625 751.082031 C 482.90625 751.082031 481.949219 752.515625 479.566406 751.082031 C 479.566406 751.082031 476.941406 748.695312 481.949219 748.457031 C 481.949219 748.457031 504.59375 739.148438 512.222656 741.296875 C 512.222656 741.296875 529.382812 739.625 531.054688 740.578125 C 531.054688 740.578125 529.125 682.050781 530.144531 677.972656 C 530.144531 677.972656 529.472656 639.222656 522.660156 630.011719 L 518.867188 629.988281 C 518.867188 629.988281 516.160156 637.308594 514.597656 637.308594 C 514.597656 637.308594 512.722656 638.765625 500.230469 630.636719 C 500.230469 630.636719 495.753906 631.679688 495.753906 632.824219 C 495.753906 632.824219 491.585938 633.242188 491.691406 634.597656 C 491.691406 634.597656 476.285156 638.351562 471.285156 630.53125 C 471.285156 630.53125 454.960938 633.101562 449.699219 609.789062 L 445.074219 610.109375 C 445.074219 610.109375 434.871094 619.53125 432 602.601562 C 432 602.601562 422.269531 603.558594 425.9375 592.699219 C 425.9375 592.699219 420.835938 581.523438 435.027344 583.917969 C 435.027344 583.917969 439.492188 572.101562 451.132812 579.765625 C 451.132812 579.765625 455.917969 554.855469 489.5625 556.292969 L 493.550781 549.585938 C 493.550781 549.585938 489.722656 507.109375 479.359375 498.964844 C 479.359375 498.964844 455.757812 467.1875 446.507812 465.90625 C 446.507812 465.90625 438.945312 468.992188 430.847656 471.441406 Z M 430.847656 471.441406 " fill-opacity="1" fill-rule="nonzero"/></svg>